<?xml version="1.0" encoding="UTF-8" standalone="no"?>
<svg
   xmlns:dc="http://purl.org/dc/elements/1.1/"
   xmlns:cc="http://creativecommons.org/ns#"
   xmlns:rdf="http://www.w3.org/1999/02/22-rdf-syntax-ns#"
   xmlns:svg="http://www.w3.org/2000/svg"
   xmlns="http://www.w3.org/2000/svg"
   xmlns:sodipodi="http://sodipodi.sourceforge.net/DTD/sodipodi-0.dtd"
   xmlns:inkscape="http://www.inkscape.org/namespaces/inkscape"
   width="558"
   height="558"
   viewBox="0 0 147.63751 147.6375"
   version="1.1"
   id="svg929"
   inkscape:version="1.0.1 (3bc2e813f5, 2020-09-07)"
   sodipodi:docname="dmm_icon_edit2.svg"
   inkscape:export-filename="C:\Projekte\dmm_icons\images\16.png"
   inkscape:export-xdpi="2.76"
   inkscape:export-ydpi="2.76">
  <defs
     id="defs923">
    <filter
       inkscape:collect="always"
       style="color-interpolation-filters:sRGB"
       id="filter1227"
       x="-0.014401391"
       width="1.0288028"
       y="-0.014398609"
       height="1.0287971">
      <feGaussianBlur
         inkscape:collect="always"
         stdDeviation="1.4015589"
         id="feGaussianBlur1229" />
    </filter>
    <filter
       inkscape:collect="always"
       style="color-interpolation-filters:sRGB"
       id="filter1100"
       x="-0.028506907"
       width="1.0570138"
       y="-0.028492533"
       height="1.0569851">
      <feGaussianBlur
         inkscape:collect="always"
         stdDeviation="1.2879697"
         id="feGaussianBlur1102" />
    </filter>
    <filter
       inkscape:collect="always"
       style="color-interpolation-filters:sRGB"
       id="filter1104"
       x="-0.02891412"
       width="1.0578282"
       y="-0.028018374"
       height="1.0560367">
      <feGaussianBlur
         inkscape:collect="always"
         stdDeviation="1.2764865"
         id="feGaussianBlur1106" />
    </filter>
  </defs>
  <sodipodi:namedview
     id="base"
     pagecolor="#ffffff"
     bordercolor="#666666"
     borderopacity="1.0"
     inkscape:pageopacity="0.0"
     inkscape:pageshadow="2"
     inkscape:zoom="0.98994949"
     inkscape:cx="371.49078"
     inkscape:cy="613.84851"
     inkscape:document-units="px"
     inkscape:current-layer="layer1"
     inkscape:document-rotation="0"
     showgrid="false"
     inkscape:window-width="1920"
     inkscape:window-height="2066"
     inkscape:window-x="1909"
     inkscape:window-y="-11"
     inkscape:window-maximized="0"
     fit-margin-top="0"
     fit-margin-left="0"
     fit-margin-right="0"
     fit-margin-bottom="0"
     units="px"
     objecttolerance="1" />
  <metadata
     id="metadata926">
    <rdf:RDF>
      <cc:Work
         rdf:about="">
        <dc:format>image/svg+xml</dc:format>
        <dc:type
           rdf:resource="http://purl.org/dc/dcmitype/StillImage" />
        <dc:title></dc:title>
      </cc:Work>
    </rdf:RDF>
  </metadata>
  <g
     inkscape:label="Layer 1"
     inkscape:groupmode="layer"
     id="layer1"
     transform="translate(-29.618301,-65.788832)">
    <circle
       r="47.310143"
       cy="140.06686"
       cx="102.17315"
       id="path1537"
       style="fill:#ffffff;fill-opacity:1;stroke:none;stroke-width:0.865354;stroke-linejoin:bevel" />
    <path
       transform="matrix(0.61366919,0,0,0.61366919,40.79259,53.120047)"
       inkscape:connector-curvature="0"
       sodipodi:nodetypes="ccccccccccccscccccccccccscssccccccccccccccccccccccsscccccccccccccccccccscccccccccccscccccccssccccccccccccccccccccccscccccccccccccccccccccscccccsccccccczzccccaccccccscccccccccccaaaacccccccccaa"
       d="m 93.283964,24.127266 c -0.153302,0.75176 -0.279151,1.36943 -0.479261,2.35676 -0.676701,3.33814 -1.594731,7.90033 -2.59407,12.8772 -0.999969,4.98038 -1.920351,9.55243 -2.59873,12.912095 -0.339111,1.679807 -0.619871,3.058877 -0.817721,4.031837 -0.0988,0.486492 -0.176041,0.872506 -0.23263,1.148125 -0.0569,0.275584 0.01569,0.02032 -0.137289,0.632798 l -0.759611,3.04658 -8.82908,1.301789 -13.567,-15.990059 -10.01096,-11.804695 c -0.132969,0.0723 -0.198779,0.1043 -0.338518,0.1803 -1.934581,1.05159 -4.510072,2.4609 -7.083002,3.87711 -2.572991,1.41623 -5.147231,2.84202 -7.09235,3.92598 -0.16838,0.0939 -0.249869,0.14075 -0.408339,0.22917 l 4.699519,14.895445 6.581711,20.879231 -4.269171,4.039947 -4.207449,3.97949 -3.476972,-1.20513 c -0.58837,-0.203485 -8.67487,-3.011767 -18.101379,-6.287376 L 5.792281,74.370593 c -0.1357101,0.231561 -0.21723,0.366458 -0.36528,0.619993 -1.1394702,1.949175 -2.62791,4.504965 -4.1016201,7.048149 -1.47377992,2.543183 -2.93214,5.075068 -4.01906,6.967871 -0.024101,0.04192 -0.0333,0.06007 -0.0569,0.10128 0.5175602,0.466987 0.8971301,0.80854 1.5517802,1.398225 2.5640001,2.3095 6.10137,5.487839 9.9853501,8.973317 l 16.4170018,14.732632 -1.257451,3.16638 c 0.20238,-0.50983 0.0789,-0.22769 0.0429,-0.10128 -0.0363,0.12649 -0.0896,0.32537 -0.153509,0.56302 -0.127781,0.47534 -0.295222,1.11233 -0.46183,1.77165 l -1.418178,5.43841 c -4.318203,0.74336 0,0 -4.318203,0.74336 -0.943539,0.20079 -2.273591,0.47742 -3.900379,0.81311 -3.253561,0.67142 -7.6930618,1.57707 -12.546842,2.5545 -8.3287301,1.67713 -13.843419,2.7899 -15.893539,3.20477 l 0.0349,8.50685 0.0349,8.53479 15.13738902,3.05934 c 5.13532008,1.03795 9.81585098,1.99032 13.22036998,2.69059 6.74964,1.37643 0.664557,0.0997 7.482377,1.4629 3.189896,9.75777 0.200004,0.56256 3.430355,10.57915 L 8.830511,181.32616 c -3.80072,3.39726 -7.3065301,6.53152 -9.8957701,8.84073 -1.2909214,1.22716 0,0 -2.0706202,1.97868 l 4.2249204,7.15285 c 1.6867399,2.85578 3.2245498,5.45974 4.3435897,7.35175 0.009,0.0157 0.012999,0.018 0.0225,0.0349 0.6223199,-0.21025 1.0617499,-0.35625 1.83798,-0.62002 3.2128212,-1.09177 7.6462412,-2.61156 12.5165722,-4.28657 4.87653,-1.67717 9.338069,-3.20431 12.60497,-4.32148 l 8.47657,-2.53224 4.106259,3.96554 4.370371,4.22025 -6.55961,20.82223 -4.68674,14.88265 c 0.0961,0.0533 0.13729,0.0759 0.237289,0.13153 1.916121,1.06452 4.54569,2.51873 7.416901,4.09349 l 7.315689,4.0097 c 0.477351,-0.56355 0.84972,-1.0059 1.464562,-1.73206 2.224137,-2.62676 5.275799,-6.23014 8.612748,-10.1738 3.338441,-3.9455 6.378001,-7.53245 8.587071,-10.13425 l 4.825976,-6.58506 10.201635,3.65809 3.270416,19.63545 c 2.828663,14.18553 2.494294,14.00142 2.902083,16.02446 h 8.537127 8.52553 l 2.98953,-14.80821 c 1.01822,-5.04794 1.95577,-9.68104 2.65107,-13.0796 0.34763,-1.69928 0.63453,-3.08921 0.83985,-4.07489 0.10257,-0.49284 0.18525,-0.884 0.24662,-1.17021 0.0308,-0.1432 0.0558,-0.25774 0.0789,-0.36063 0.0232,-0.10286 -0.14789,0.30724 0.16636,-0.60141 l 0.91083,-2.6301 4.31217,-1.08067 4.6658,-1.17022 14.01957,16.54844 c 3.36464,3.97241 6.4326,7.58581 8.66158,10.20055 0.55903,0.65571 0.87914,1.03181 1.32378,1.55175 0.0813,-0.0441 0.11725,-0.064 0.20122,-0.10934 1.97675,-1.07069 4.61091,-2.50566 7.2459,-3.93991 2.635,-1.43426 5.27157,-2.8684 7.25404,-3.95275 0.0892,-0.0486 0.12994,-0.0713 0.21632,-0.11856 -0.20258,-0.65698 -0.34574,-1.12846 -0.60258,-1.95543 -1.02773,-3.30885 -2.45249,-7.87326 -4.03186,-12.8865 l -6.55144,-20.79547 4.04116,-4.04926 3.44672,-3.46069 h 2.10198 c 0.001,0 0.56184,0.0321 0.68519,0.0524 0.12331,0.0203 0.19627,0.0353 0.25472,0.0488 0.11683,0.0252 0.17401,0.0435 0.22443,0.0569 0.10113,0.0268 0.15982,0.0437 0.21994,0.0617 0.12042,0.036 0.23626,0.0732 0.37807,0.1187 0.28349,0.0909 0.65616,0.21183 1.13065,0.36991 0.94901,0.3159 2.28896,0.7666 3.92597,1.32263 3.27412,1.112 7.74328,2.64206 12.62713,4.32612 l 14.54298,5.01713 c 0.0689,-0.11352 0.10001,-0.1623 0.17222,-0.2815 1.12309,-1.85722 2.65104,-4.41409 4.29939,-7.20637 l 4.22027,-7.15749 c -0.53932,-0.48578 -0.96075,-0.86452 -1.65765,-1.4901 -2.51116,-2.25427 -5.95863,-5.34203 -9.7294,-8.7058 -3.774,-3.36658 -7.2324,-6.44904 -9.76439,-8.70928 -1.26599,-1.13009 -2.29754,-2.05391 -3.02444,-2.7034 -0.72694,-0.64944 -0.74551,-0.6548 -1.23537,-1.10858 l -2.18109,-2.01824 1.4029,-5.394 1.41564,-5.4475 2.88836,-0.65027 c 0.44395,-0.10112 0.24764,-0.0512 0.51417,-0.10573 0.26651,-0.0547 0.64829,-0.13355 1.13418,-0.23265 0.97167,-0.19853 2.35869,-0.48499 4.05853,-0.83172 3.39978,-0.69349 8.05239,-1.6377 13.13665,-2.67316 l 14.97457,-3.05122 0.0349,-8.55105 c 0.013,-3.31196 0.0157,-6.31725 0.009,-8.49873 -0.74887,-0.1506 -1.33945,-0.26717 -2.28229,-0.45716 -3.44865,-0.69482 -8.041,-1.62288 -12.64807,-2.5545 -4.60703,-0.93161 -9.22788,-1.86411 -12.73299,-2.57544 -1.75248,-0.35569 -3.22729,-0.65609 -4.28188,-0.87128 -0.52738,-0.10762 -0.94994,-0.19248 -1.2528,-0.25476 -0.30299,-0.0625 -0.19269,-0.0285 -0.64218,-0.13615 l -2.95463,-0.70841 -1.4029,-5.37655 c -0.40774,-1.56085 -0.68498,-2.58098 -0.86081,-3.35948 l -0.65955,-2.9279 15.95515,-14.25802 c 3.8527,-3.442435 7.35786,-6.586812 9.89232,-8.872124 0.63608,-0.573564 0.99906,-0.902383 1.50293,-1.358667 -0.0115,-0.02032 -0.0157,-0.02752 -0.0268,-0.04768 -1.09035,-1.887601 -2.59568,-4.483685 -4.25514,-7.325016 l -4.26917,-7.307544 c -0.692,0.236305 -1.22475,0.415475 -2.11476,0.721246 -3.26099,1.120172 -7.73936,2.668066 -12.63992,4.370324 -4.90994,1.705508 -9.40482,3.256945 -12.69694,4.383115 l -7.9675,2.931853 -4.27255,-4.167235 -3.87243,-3.881756 6.49327,-20.611655 c 1.56423,-4.965886 2.98922,-9.497544 4.02251,-12.798124 0.28183,-0.90021 0.45034,-1.44014 0.66891,-2.14036 l -7.48326,-4.15517 -7.33311,-4.07602 c -1.61347,1.79373 -0.48214,0.455564 -1.61347,1.79373 -2.22586,2.63276 -5.27099,6.23223 -8.59523,10.161018 -6.64768,7.856501 -12.01713,14.197092 -12.0513,14.240539 v 0.0043 c 0,0 -1.91782,2.156848 -2.14216,2.443136 -0.22434,0.286284 -8.72536,-3.046334 -8.7476,-3.28657 -0.0222,-0.240234 -4.14116,-20.589553 -4.14116,-20.589553 L 110.40223,24.12905 h -8.52904 z M 85.282583,211.84595 c -5.671092,-1.12103 -10.664269,-3.08834 -16.293671,-5.93956 l -3.415329,-1.73208 -3.315269,-2.19854 c -1.836553,-1.21873 -4.133371,-2.86269 -5.521971,-3.97835 l -2.260182,-1.81581 -2.89301,-2.82323 C 41.261483,183.29159 34.554113,172.0572 31.306501,159.17621 c -1.253059,-4.96989 -1.889549,-9.84606 -2.145038,-16.1576 l -0.127931,-3.1745 0.2291,-3.75032 c 0.436829,-7.21375 1.746329,-13.61337 4.180771,-20.43021 l 0.945729,-2.66037 1.99962,-4.03997 1.99611,-4.03185 1.415711,-2.20785 c 3.259148,-5.081331 7.012588,-9.58918 11.88842,-14.327796 l 2.624309,-2.54984 2.541731,-2.027539 c 8.72813,-6.950891 18.564942,-11.039077 28.86725,-13.796189 7.710866,-2.063586 15.897447,-2.106345 23.875417,-1.845871 2.26995,0.07411 4.52317,0.49393 6.74447,0.96719 1.89499,0.403741 3.73907,1.020233 5.59037,1.591813 1.0446,0.322514 3.11169,1.036434 3.11169,1.036434 l 3.09544,1.024831 2.77434,1.217936 c 7.34578,3.220288 14.07399,7.782338 20.60238,13.897365 3.48374,3.263183 5.85442,5.917496 8.82443,9.862066 7.52819,9.99863 11.74779,20.56326 13.51931,33.69944 l 0.31642,2.33814 0.11395,5.31141 c 0.66126,24.14528 -8.89999,40.54249 -24.75753,56.47359 -7.00878,7.16066 -23.39527,14.67634 -36.64015,17.37536 -9.02557,1.83922 -18.574031,0.6603 -27.610237,-1.12593 z"
       style="color:#000000;font-style:normal;font-variant:normal;font-weight:normal;font-stretch:normal;font-size:medium;line-height:normal;font-family:sans-serif;font-variant-ligatures:normal;font-variant-position:normal;font-variant-caps:normal;font-variant-numeric:normal;font-variant-alternates:normal;font-feature-settings:normal;text-indent:0;text-align:start;text-decoration:none;text-decoration-line:none;text-decoration-style:solid;text-decoration-color:#000000;letter-spacing:normal;word-spacing:normal;text-transform:none;writing-mode:lr-tb;direction:ltr;text-orientation:mixed;dominant-baseline:auto;baseline-shift:baseline;text-anchor:start;white-space:normal;shape-padding:0;clip-rule:nonzero;display:inline;overflow:visible;visibility:visible;isolation:auto;mix-blend-mode:normal;color-interpolation:sRGB;color-interpolation-filters:linearRGB;solid-color:#000000;solid-opacity:1;vector-effect:none;fill:none;fill-opacity:1;fill-rule:nonzero;stroke:#5e5e5e;stroke-width:5;stroke-linecap:butt;stroke-linejoin:miter;stroke-miterlimit:4;stroke-dasharray:none;stroke-dashoffset:0;stroke-opacity:1;paint-order:normal;filter:url(#filter1227);color-rendering:auto;image-rendering:auto;shape-rendering:auto;text-rendering:auto;enable-background:accumulate"
       id="path944-2-2-3" />
    <path
       inkscape:connector-curvature="0"
       sodipodi:nodetypes="ccccccccccccscccccccccccscssccccccccccccccccccccccsscccccccccccccccccccscccccccccccscccccccssccccccccccccccccccccccscccccccccccccccccccccscccccsccccccczzccccaccccccscccccccccccaaaacccccccccaa"
       d="m 98.090649,68.634301 c -0.09315,0.456774 -0.169613,0.832075 -0.291201,1.431983 -0.411168,2.028277 -0.968969,4.800294 -1.576175,7.824274 -0.607589,3.026113 -1.166818,5.804122 -1.579006,7.845476 -0.206045,1.020664 -0.376637,1.858594 -0.496852,2.449771 -0.06003,0.295597 -0.106963,0.530141 -0.141348,0.697609 -0.03457,0.167449 0.0095,0.01235 -0.08342,0.384494 l -0.461544,1.851121 -5.364609,0.790978 -8.243402,-9.715669 -6.082727,-7.172613 c -0.08079,0.04393 -0.12078,0.06337 -0.205687,0.109551 -1.175464,0.638954 -2.740349,1.49526 -4.303679,2.355759 -1.563366,0.860511 -3.127492,1.72683 -4.30936,2.385452 -0.102309,0.05705 -0.151823,0.08552 -0.24811,0.139245 l 2.85546,9.050572 3.999092,12.686366 -2.593977,2.4547 -2.556475,2.41796 -2.112631,-0.73225 c -0.357497,-0.12363 -5.270909,-1.82997 -10.998521,-3.82025 l -8.366369,-2.906348 c -0.08246,0.1407 -0.13199,0.22267 -0.221946,0.37672 -0.69235,1.184328 -1.596736,2.737238 -2.492172,4.282498 -0.895479,1.54525 -1.781589,3.08364 -2.442009,4.23373 -0.01464,0.0255 -0.02023,0.0365 -0.03457,0.0615 0.314472,0.28375 0.545102,0.49128 0.942872,0.84957 1.557903,1.40327 3.707233,3.33445 6.067166,5.45225 l 9.975081,8.95165 -0.764035,1.92391 c 0.122967,-0.30978 0.04794,-0.13834 0.02607,-0.0615 -0.02206,0.0769 -0.05444,0.19769 -0.09327,0.34209 -0.07764,0.28882 -0.179378,0.67585 -0.280611,1.07647 l -0.861694,3.30441 c -2.623769,0.45167 0,0 -2.623769,0.45167 -0.573302,0.122 -1.381449,0.29008 -2.369898,0.49405 -1.976885,0.40796 -4.674355,0.95824 -7.623545,1.55213 -5.060593,1.01904 -8.411356,1.69517 -9.657023,1.94724 l 0.02121,5.16882 0.0212,5.1858 9.197581,1.85888 c 3.120256,0.63066 5.964177,1.20933 8.032787,1.63482 4.101127,0.83632 0.403788,0.0606 4.546343,0.88886 1.938202,5.92889 0.121523,0.34182 2.084306,6.42796 l -9.604016,8.5834 c -2.309343,2.0642 -4.439497,3.96859 -6.012737,5.37169 -0.784372,0.74563 0,0 -1.258122,1.20225 l 2.56709,4.34613 c 1.024874,1.73519 1.959258,3.31737 2.639194,4.46697 0.0055,0.01 0.0079,0.0109 0.01367,0.0212 0.378126,-0.12775 0.645126,-0.21646 1.116769,-0.37672 1.952131,-0.66337 4.645907,-1.58681 7.605153,-2.60455 2.963012,-1.01906 5.673874,-1.94696 7.658865,-2.62576 l 5.150422,-1.53861 2.494991,2.40949 2.655467,2.56425 -3.985664,12.65173 -2.847695,9.0428 c 0.05839,0.0324 0.08342,0.0461 0.144179,0.0799 1.164247,0.64681 2.761992,1.53039 4.506559,2.48723 l 4.445063,2.43632 c 0.290041,-0.34242 0.516295,-0.61119 0.889876,-1.05241 1.351403,-1.59604 3.205612,-3.78548 5.233166,-6.18167 2.028458,-2.39731 3.875316,-4.57677 5.217562,-6.15764 l 2.932296,-4.00113 6.198583,2.22268 1.987126,11.93064 c 1.718716,8.61922 1.51555,8.50735 1.763326,9.73657 h 5.187205 5.18017 l 1.81646,-8.99757 c 0.61868,-3.06716 1.18834,-5.88227 1.61081,-7.94726 0.21122,-1.03249 0.38555,-1.87702 0.5103,-2.47593 0.0623,-0.29945 0.11256,-0.53712 0.14985,-0.71102 0.0187,-0.087 0.0339,-0.15661 0.0479,-0.21913 0.0141,-0.0625 -0.0899,0.18669 0.10108,-0.36542 l 0.55342,-1.59806 2.62011,-0.65663 2.83497,-0.71103 8.51839,10.05495 c 2.04437,2.41366 3.90849,4.60919 5.26283,6.19792 0.33967,0.39841 0.53417,0.62693 0.80434,0.94285 0.0494,-0.0268 0.0712,-0.0389 0.12226,-0.0664 1.20109,-0.65056 2.80162,-1.52246 4.40266,-2.39392 1.60104,-0.87147 3.20304,-1.74286 4.4076,-2.40172 0.0542,-0.0295 0.079,-0.0433 0.13144,-0.072 -0.12309,-0.39919 -0.21007,-0.68566 -0.36613,-1.18814 -0.62446,-2.01048 -1.49015,-4.78384 -2.44979,-7.82992 l -3.9807,-12.63547 2.45544,-2.46036 2.09425,-2.10274 h 1.27718 c 6.1e-4,0 0.34138,0.0195 0.41632,0.0318 0.0749,0.0123 0.11926,0.0214 0.15477,0.0297 0.071,0.0153 0.10573,0.0264 0.13637,0.0346 0.0615,0.0163 0.0971,0.0265 0.13364,0.0375 0.0732,0.0219 0.14355,0.0445 0.22971,0.0721 0.17225,0.0552 0.39869,0.12871 0.687,0.22476 0.57662,0.19194 1.39079,0.46579 2.38544,0.80364 1.98938,0.67565 4.70487,1.60533 7.67233,2.62858 l 8.83641,3.04844 c 0.0419,-0.069 0.0608,-0.0986 0.10465,-0.17104 0.68239,-1.12846 1.61079,-2.68203 2.61234,-4.37864 l 2.56426,-4.34894 c -0.32769,-0.29517 -0.58376,-0.52529 -1.0072,-0.9054 -1.5258,-1.3697 -3.6205,-3.24585 -5.91165,-5.2897 -2.29311,-2.04556 -4.39445,-3.91847 -5.93291,-5.29181 -0.76922,-0.68666 -1.396,-1.24798 -1.83767,-1.64261 -0.44169,-0.39461 -0.45298,-0.39786 -0.75062,-0.67358 l -1.32524,-1.2263 0.85241,-3.27743 0.86015,-3.30994 1.75499,-0.3951 c 0.26974,-0.0615 0.15047,-0.0311 0.31241,-0.0643 0.16193,-0.0332 0.39391,-0.0811 0.68914,-0.14136 0.59039,-0.12063 1.43315,-0.29468 2.46599,-0.50536 2.06573,-0.42136 4.89268,-0.99507 7.98191,-1.62423 l 9.09866,-1.85394 0.0212,-5.19568 c 0.008,-2.01236 0.01,-3.8384 0.005,-5.16388 -0.45502,-0.0915 -0.81386,-0.16234 -1.38674,-0.27777 -2.09542,-0.42218 -4.88576,-0.98608 -7.68505,-1.55213 -2.79926,-0.56606 -5.60692,-1.13265 -7.73665,-1.56486 -1.06482,-0.21612 -1.96092,-0.39865 -2.6017,-0.5294 -0.32044,-0.0654 -0.57719,-0.11694 -0.76121,-0.15479 -0.1841,-0.038 -0.11708,-0.0173 -0.39019,-0.0827 l -1.79526,-0.43044 -0.85241,-3.26683 c -0.24774,-0.94838 -0.4162,-1.56822 -0.52303,-2.04124 l -0.40075,-1.77901 9.69446,-8.66327 c 2.34093,-2.09165 4.47068,-4.00219 6.01064,-5.39076 0.38649,-0.3485 0.60704,-0.5483 0.91319,-0.82554 -0.007,-0.0123 -0.01,-0.0167 -0.0163,-0.029 -0.66251,-1.14692 -1.57716,-2.72432 -2.58546,-4.45073 l -2.59397,-4.440108 c -0.42047,0.14358 -0.74417,0.25245 -1.28494,0.43823 -1.9814,0.680628 -4.70249,1.621138 -7.68011,2.655438 -2.98331,1.03628 -5.71443,1.97894 -7.71474,2.66321 l -4.84111,1.78142 -2.59603,-2.53204 -2.35292,-2.35858 3.94536,-12.523785 c 0.95044,-3.017305 1.81627,-5.770772 2.4441,-7.776226 0.17125,-0.546974 0.27363,-0.875039 0.40644,-1.300498 l -4.54688,-2.524709 -4.45565,-2.476617 c -0.98035,1.089882 -0.29295,0.276803 -0.98035,1.089882 -1.35245,1.599683 -3.20269,3.786745 -5.22252,6.173904 -4.03918,4.773662 -7.30169,8.626249 -7.32246,8.652648 v 0.0026 c 0,0 -1.16528,1.310515 -1.30159,1.484464 -0.13631,0.17395 -5.30158,-1.850972 -5.3151,-1.99694 -0.0135,-0.145969 -2.51619,-12.510353 -2.51619,-12.510353 l -1.85675,-9.223757 h -5.1823 z M 93.228956,182.69344 c -3.445794,-0.68115 -6.479682,-1.8765 -9.900144,-3.60892 l -2.075178,-1.05242 -2.01438,-1.33585 c -1.115901,-0.74051 -2.511464,-1.73939 -3.355187,-2.41727 l -1.373301,-1.1033 -1.757812,-1.71541 c -6.271517,-6.11665 -10.346961,-12.94275 -12.32023,-20.76932 -0.761368,-3.01974 -1.148104,-5.98254 -1.303341,-9.81746 l -0.07773,-1.92886 0.139202,-2.27872 c 0.265421,-4.38312 1.061082,-8.27157 2.540265,-12.41353 l 0.574632,-1.61645 1.214982,-2.45472 1.21285,-2.44978 0.860195,-1.34151 c 1.980282,-3.08744 4.260898,-5.82644 7.223485,-8.70566 l 1.594549,-1.5493 1.544372,-1.23195 c 5.303271,-4.2234 11.280185,-6.70741 17.539937,-8.382649 4.685175,-1.253851 9.659398,-1.279831 14.506858,-1.121565 1.37924,0.04503 2.74831,0.300115 4.09799,0.587671 1.15141,0.245316 2.27188,0.6199 3.39675,0.967196 0.6347,0.195961 1.89068,0.629744 1.89068,0.629744 l 1.88081,0.622696 1.68571,0.740029 c 4.46334,1.956668 8.55145,4.728598 12.51815,8.444128 2.11674,1.98273 3.55718,3.59551 5.36178,5.99226 4.57418,6.07523 7.13804,12.49437 8.21442,20.476 l 0.19226,1.42067 0.0692,3.22725 c 0.40179,14.67083 -5.4077,24.63389 -15.04284,34.31374 -4.25859,4.35086 -14.21513,8.91744 -22.26281,10.55738 -5.484,1.11752 -11.285702,0.40121 -16.776163,-0.68412 z"
       style="color:#000000;font-style:normal;font-variant:normal;font-weight:normal;font-stretch:normal;font-size:medium;line-height:normal;font-family:sans-serif;font-variant-ligatures:normal;font-variant-position:normal;font-variant-caps:normal;font-variant-numeric:normal;font-variant-alternates:normal;font-feature-settings:normal;text-indent:0;text-align:start;text-decoration:none;text-decoration-line:none;text-decoration-style:solid;text-decoration-color:#000000;letter-spacing:normal;word-spacing:normal;text-transform:none;writing-mode:lr-tb;direction:ltr;text-orientation:mixed;dominant-baseline:auto;baseline-shift:baseline;text-anchor:start;white-space:normal;shape-padding:0;clip-rule:nonzero;display:inline;overflow:visible;visibility:visible;isolation:auto;mix-blend-mode:normal;color-interpolation:sRGB;color-interpolation-filters:linearRGB;solid-color:#000000;solid-opacity:1;vector-effect:none;fill:#000000;fill-opacity:1;fill-rule:nonzero;stroke:none;stroke-width:0.303803;stroke-linecap:butt;stroke-linejoin:miter;stroke-miterlimit:4;stroke-dasharray:none;stroke-dashoffset:0;stroke-opacity:1;paint-order:normal;color-rendering:auto;image-rendering:auto;shape-rendering:auto;text-rendering:auto;enable-background:accumulate"
       id="path944-2-2" />
    <path
       transform="matrix(0.60760679,0,0,0.60760679,41.411446,53.974446)"
       inkscape:export-ydpi="212.56"
       inkscape:export-xdpi="212.56"
       inkscape:export-filename="C:\Users\Jan\Desktop\new_icon.png"
       d="m 130.76722,81.400954 c -1.1114,-1.110379 -2.89992,-1.109692 -4.01038,0.0016 l -13.83133,13.841919 c -1.11049,1.111371 -1.10974,2.899962 0.002,4.01041 l 11.64814,11.638997 -64.486064,64.53803 a 2.0918145,2.9544941 44.976923 0 1 -0.949391,3.04519 2.0918145,2.9544941 44.976923 0 1 -3.044712,0.95216 l -3.003555,3.00488 c -0.49914,0.49915 -0.50722,1.29416 -0.01872,1.78228 l 4.484772,4.48081 c 0.488218,0.48843 1.283362,0.47922 1.782285,-0.0202 l 3.00387,-3.0052 a 2.0918144,2.9544941 44.976923 0 1 0.949382,-3.04518 2.0918144,2.9544941 44.976923 0 1 3.044396,-0.95177 l 64.486107,-64.53807 11.64819,11.63895 c 1.11133,1.11046 2.90027,1.11014 4.01073,-0.001 l 13.83134,-13.84184 c 1.11043,-1.11133 1.10938,-2.90021 -0.002,-4.01065 z"
       style="fill:none;fill-opacity:1;stroke:#000000;stroke-width:2.17725795;stroke-linejoin:bevel;stroke-miterlimit:1.89999998;stroke-dasharray:none;stroke-opacity:1;opacity:1;filter:url(#filter1100)"
       id="rect40-6-2-3-0-2-1"
       inkscape:connector-curvature="0" />
    <path
       sodipodi:nodetypes="ccccccccccscccccccccccsscccccccccccccccccccccsccccccccsccccccccccccccccccccccccccscccccccccccccccccccccccccccccccccccccccccccccsccccccccscccccccccccccccccccccsccccccccccccc"
       inkscape:export-ydpi="212.56"
       inkscape:export-xdpi="212.56"
       inkscape:export-filename="C:\Users\Jan\Desktop\new_icon.png"
       d="m 55.217579,88.880513 0.0742,0.02199 c 0.0407,0.01201 2.344161,0.8514 5.118981,1.864702 l 5.045189,1.842698 0.11985,0.518901 c 0.066,0.285599 0.55914,2.443001 1.09585,4.7938 l 0.97602,4.274106 -4.176619,12.52989 -4.176252,12.5294 4.28259,-0.1907 c 2.355461,-0.1051 4.287501,-0.1964 4.293181,-0.2021 0.006,-0.01 0.22869,-0.4927 0.49511,-1.0819 l 0.48416,-1.0718 -1.24091,-0.4129 -1.24092,-0.4136 -0.10743,-0.1294 c -0.13149,-0.1576 -0.26569,-0.5386 -0.24082,-0.6844 0.0221,-0.1299 4.85623,-14.6335 4.92861,-14.7873 0.03,-0.064 0.13538,-0.2067 0.23426,-0.3183 0.16571,-0.187 0.19322,-0.2079 0.35557,-0.2656 0.0969,-0.034 0.22582,-0.06 0.28648,-0.058 0.0606,0 0.95935,0.2738 1.99769,0.6033 1.03829,0.3295 1.89864,0.6082 1.90193,0.6011 0.22578,-0.4846 1.57344,-3.5622 3.47942,-7.91769 1.90598,-4.355408 3.49257,-7.974408 3.51813,-8.023406 -0.084,-0.602102 -0.70132,-1.381601 -1.03483,-1.876901 -0.0691,-0.1025 -0.26525,-0.3599 -0.68039,-0.8923 -3.1241,-4.098401 -8.3728,-6.007899 -13.07426,-6.409301 -0.48563,-0.041 -1.74381,-0.053 -2.27831,-0.02101 -4.181931,0.143701 -7.04368,1.830801 -9.166559,3.923702 z m -6.533851,13.590597 c -0.0685,0.099 -0.17858,1.1915 -0.179049,1.7773 0.0286,4.4383 2.94926,9.6111 5.457529,11.9857 1.92391,1.4441 3.729051,3.2276 6.192591,3.7225 0.009,-0.01 0.53076,-1.5446 1.159439,-3.4126 l 1.142622,-3.3964 -0.739572,-3.1177 c -0.406868,-1.7149 -0.74667,-3.1416 -0.755308,-3.1706 -0.01151,-0.038 -1.679901,-0.6495 -6.130081,-2.2451 -5.29767,-1.8995 -6.11849,-2.1855 -6.14798,-2.1431 z m 34.81163,-7.930095 c -0.0187,0.01 -6.40971,14.528595 -6.43883,14.629795 -0.008,0.028 1.0107,0.3597 3.324111,1.082 1.83476,0.5728 3.348889,1.0541 3.36431,1.0695 0.0154,0.015 0.12911,0.07 0.2532,0.121 0.12416,0.051 0.26401,0.1153 0.31096,0.1429 0.047,0.027 0.16381,0.087 0.25941,0.1316 0.0957,0.045 0.21013,0.1019 0.25468,0.1275 0.0445,0.026 0.124409,0.07 0.17722,0.099 0.19956,0.1102 0.53001,0.3069 0.64021,0.3808 0.0631,0.042 0.1982,0.1307 0.30074,0.1969 0.53506,0.3453 1.3128,1.0656 1.76056,1.6312 0.39652,0.5008 1.01544,1.5683 1.14994,1.983 0.0214,0.066 0.0484,0.1288 0.0599,0.1404 0.0327,0.033 0.47621,1.2398 0.48052,1.3078 0.002,0.033 0.0569,0.2255 0.12168,0.4271 0.0648,0.2017 0.16526,0.5222 0.223249,0.7122 0.058,0.19 0.156401,0.4944 0.21852,0.6767 0.0621,0.1824 0.11519,0.3589 0.11768,0.3925 0.006,0.074 0.67745,1.9367 0.71033,1.9695 0.0127,0.013 0.0649,0.129 0.11585,0.2584 0.051,0.1292 0.11436,0.2802 0.14067,0.3358 0.0642,0.1356 0.31708,0.6498 0.37126,0.7549 0.11982,0.2321 0.44935,0.7657 0.67345,1.0908 l 0.25177,0.365 3.41019,3.4229 3.41056,3.4233 53.507372,53.5074 1.80659,-1.8066 -53.50737,-53.5074 h -0.002 l -2.897932,-2.9156 c -3.11437,-3.1332 -3.003,-3.0143 -3.5649,-3.8083 -3.27001,-6.3113 -10.66637,-28.425494 -11.00367,-28.344095 z m -11.50886,14.435095 c -0.0109,0.01 -0.15634,0.4535 -0.32303,0.9851 l -0.30292,0.9665 0.57405,0.1802 c 0.31577,0.099 2.54536,0.7931 4.95493,1.5427 2.409581,0.7495 4.38607,1.3579 4.39146,1.352 0.005,-0.01 0.15445,-0.4459 0.33034,-0.9771 l 0.319721,-0.9658 -4.962591,-1.5511 c -2.72917,-0.8531 -4.97103,-1.5428 -4.98196,-1.5325 z m -0.94532,2.9207 c -0.0159,-0.01 -0.17868,0.4323 -0.36139,0.9774 l -0.332149,0.9914 4.972459,1.5617 c 2.73496,0.859 4.982161,1.5517 4.993661,1.5399 0.0115,-0.012 0.165,-0.4557 0.34093,-0.987 l 0.31972,-0.9665 -4.95201,-1.5515 c -2.72359,-0.8536 -4.96531,-1.558 -4.981221,-1.5654 z m -0.99903,2.9547 c -0.0159,-0.01 -0.17676,0.4262 -0.357,0.9635 l -0.32777,0.9768 0.83094,0.2653 c 0.45685,0.1458 2.69238,0.8547 4.96807,1.5756 2.27571,0.7209 4.14684,1.301 4.15835,1.2892 0.0115,-0.012 0.16497,-0.4565 0.34092,-0.9877 l 0.31973,-0.9658 -4.95163,-1.5519 c -2.72364,-0.8536 -4.96563,-1.5575 -4.98161,-1.565 z m -1.02168,3.0022 c -0.0173,0.018 -0.17053,0.4525 -0.34056,0.9661 l -0.30911,0.934 4.98342,1.5719 c 2.74084,0.8648 4.98847,1.5679 4.99437,1.5625 0.006,0 0.14912,-0.4506 0.31756,-0.9884 l 0.3062,-0.9778 -4.96041,-1.5505 c -3.25359,-1.017 -4.97086,-1.539 -4.99147,-1.5178 z m -0.93396,2.9064 c -0.0159,-0.01 -0.17834,0.4327 -0.36104,0.9778 l -0.33252,0.991 4.97284,1.5621 c 2.73496,0.859 4.98208,1.5518 4.99364,1.5399 0.0115,-0.012 0.16502,-0.4565 0.34094,-0.9877 l 0.31974,-0.9658 -4.95201,-1.5523 c -2.72364,-0.8536 -4.96562,-1.5575 -4.98159,-1.565 z m 2.14968,4.3348 c -0.0149,0.014 -0.23636,0.5142 -0.4922,1.1112 l -0.46517,1.0857 c 3.7714,1.1312 7.477591,2.4945 11.26482,3.5722 0.0383,0 0.21749,0.052 0.398291,0.1125 1.17896,0.3935 2.46661,1.1932 3.96723,2.4632 0.18603,0.1573 1.408479,1.3539 3.22725,3.1601 l 2.92767,2.9071 53.507361,53.5074 1.80694,-1.8069 -53.507361,-53.5074 -2.89551,-2.875 c -2.34398,-2.3273 -2.98701,-2.9539 -3.37527,-3.2883 -0.704491,-0.6068 -1.07821,-0.9124 -1.33227,-1.0911 -0.0687,-0.048 -0.24583,-0.1774 -0.39393,-0.2865 -0.29707,-0.2188 -1.01055,-0.6628 -1.29646,-0.8068 -0.27522,-0.1386 -0.74275,-0.3355 -0.87003,-0.3665 -0.0619,-0.015 -2.88698,-0.9027 -6.27809,-1.9721 -3.39109,-1.0694 -6.17831,-1.9331 -6.19328,-1.9188 z m 12.9146,-12.4483 c -0.0101,0.01 -1.0376,3.0747 -2.28271,6.8101 l -2.263679,6.7918 0.13558,0.045 c 0.68773,0.228 5.26841,1.6765 5.28964,1.6729 0.0458,-0.01 0.41118,0.1376 0.65224,0.2598 0.79713,0.4039 1.78686,1.1338 2.85017,2.1025 0.26701,0.2434 1.78022,1.738 3.42718,3.3848 l 2.6e-4,-2.7e-4 2.9492,2.9492 53.507481,53.50731 4.16345,-4.1635 -53.507371,-53.50731 -3.22728,-3.2449 c -3.14646,-3.1634 -3.49864,-3.5297 -3.7436,-3.8978 -0.042,-0.063 -0.13726,-0.1975 -0.21156,-0.2985 -0.0743,-0.1011 -0.24207,-0.3638 -0.37272,-0.5839 -0.13066,-0.2201 -0.26588,-0.4481 -0.30073,-0.5068 -0.0962,-0.1617 -0.46071,-0.9922 -0.53459,-1.218 -0.036,-0.1095 -0.0751,-0.2088 -0.087,-0.2207 -0.0119,-0.012 -0.0561,-0.1453 -0.0983,-0.2963 -0.17768,-0.6368 -1.75708,-5.7216 -1.80767,-5.8199 -0.0305,-0.059 -0.0768,-0.1528 -0.1027,-0.2086 -0.0949,-0.2037 -0.21806,-0.4097 -0.42205,-0.7049 -0.17586,-0.2543 -0.28685,-0.3797 -0.70782,-0.8013 -0.69413,-0.6952 -1.15736,-1.0373 -2.04189,-1.5077 -0.40117,-0.2133 -1.23494,-0.5716 -1.26358,-0.5429 z"
       style="mix-blend-mode:normal;fill:none;fill-opacity:1;stroke:#000000;stroke-width:2.33415898;stroke-linecap:butt;stroke-linejoin:bevel;stroke-miterlimit:4;stroke-dasharray:none;stroke-opacity:1;paint-order:normal;filter:url(#filter1104)"
       id="path896-2-1-7-9-6"
       inkscape:connector-curvature="0"
       transform="matrix(0.56676375,9.1608827e-5,-9.1608827e-5,0.56676375,45.029455,60.707333)" />
    <path
       inkscape:export-ydpi="212.56"
       inkscape:export-xdpi="212.56"
       inkscape:export-filename="C:\Users\Jan\Desktop\new_icon.png"
       d="m 120.86649,103.43422 c -0.67529,-0.67468 -1.76201,-0.67426 -2.43673,9.7e-4 l -8.40401,8.41044 c -0.67474,0.67528 -0.67429,1.76204 0.001,2.43676 l 7.07754,7.07193 -39.182162,39.21374 a 1.2710007,1.7951707 44.976923 0 1 -0.576857,1.85028 1.2710007,1.7951707 44.976923 0 1 -1.849988,0.57854 l -1.82498,1.82579 c -0.303281,0.30328 -0.308191,0.78634 -0.01138,1.08292 l 2.724979,2.72257 c 0.296644,0.29678 0.779779,0.29118 1.082928,-0.0123 l 1.825172,-1.82598 a 1.2710006,1.7951707 44.976923 0 1 0.576851,-1.85027 1.2710006,1.7951707 44.976923 0 1 1.849795,-0.5783 l 39.182192,-39.21378 7.07752,7.0719 c 0.67525,0.67473 1.76222,0.67453 2.43694,-5.6e-4 l 8.40402,-8.41043 c 0.6747,-0.67525 0.67407,-1.76218 -0.001,-2.4369 z"
       style="fill:#de1c00;fill-opacity:1;stroke:#ffffff;stroke-width:0.26458334;stroke-linejoin:bevel;stroke-miterlimit:1.89999998;stroke-dasharray:none;stroke-opacity:1"
       id="rect40-6-2-3-0-2"
       inkscape:connector-curvature="0" />
    <g
       id="g894">
      <path
         sodipodi:nodetypes="ccccssccccccccccccccccccscsccsccscccsccccccccccccccccccscscccccccccsccccccccccccccccccccccccccscscccccscscsccccccscccccccsccccccccccc"
         inkscape:export-ydpi="212.56"
         inkscape:export-xdpi="212.56"
         inkscape:export-filename="C:\Users\Jan\Desktop\new_icon.png"
         d="m 83.484409,132.72135 0.798108,0.27845 c 0.08074,-0.20192 0.176176,-0.55335 0.263564,-0.75726 0.145056,-0.33833 0.270776,-0.62164 0.279216,-0.62963 0.0085,-0.008 1.587887,0.48161 3.509741,1.08802 1.92186,0.60641 3.522954,1.10967 3.558058,1.11823 0.07214,0.0176 0.33721,0.12945 0.493182,0.20803 0.16203,0.0816 0.566427,0.33323 0.734769,0.45727 0.08393,0.0618 0.184239,0.13492 0.223149,0.1623 0.143975,0.1013 0.35573,0.27477 0.754954,0.61869 0.220021,0.18956 0.584546,0.5447 1.912815,1.86394 l 1.640762,1.6296 30.440443,30.40383 0.58821,-0.58804 -30.440451,-30.40383 -1.671212,-1.67177 -3e-4,3e-4 c -0.933286,-0.9335 -1.790782,-1.78072 -1.942092,-1.91869 -0.301281,-0.27454 -0.592179,-0.51523 -0.864181,-0.71591 -0.272009,-0.20073 -0.525003,-0.36157 -0.75088,-0.47609 -0.136613,-0.0692 -0.343621,-0.15189 -0.369592,-0.14736 -0.01202,0 -2.60804,-0.81928 -2.997799,-0.94857 l -0.07703,-0.0255 1.283741,-3.84914 c 0.706031,-2.11698 1.288554,-3.85368 1.294291,-3.8594 0.01621,-0.0164 0.488701,0.187 0.71605,0.30793 0.250636,0.13334 0.441639,0.24831 0.619094,0.37938 0.177456,0.13106 0.341278,0.2781 0.537952,0.47514 0.238552,0.23899 0.301525,0.31019 0.401173,0.45433 0.115587,0.16733 0.185433,0.28409 0.239223,0.39955 0.01473,0.0317 0.04102,0.0848 0.05826,0.11835 0.02867,0.0555 0.923328,2.93769 1.023978,3.29862 0.0239,0.0856 0.04888,0.16108 0.05563,0.16782 0.0067,0.007 0.02878,0.063 0.04917,0.12504 0.04186,0.12793 0.248514,0.59871 0.303022,0.69037 0.01977,0.0334 0.09637,0.16262 0.170407,0.28737 0.07403,0.12476 0.169005,0.27372 0.211118,0.33097 0.0421,0.0573 0.09596,0.13349 0.119763,0.16931 0.138795,0.20865 0.338569,0.41606 2.121578,2.20925 l 1.828767,1.83933 30.42215,30.45178 0.61515,-0.61496 -30.42215,-30.45177 -1.932716,-1.94034 -1.932425,-1.94041 -0.142598,-0.20677 c -0.126988,-0.18428 -0.313937,-0.48679 -0.381825,-0.61835 -0.03071,-0.0596 -0.173867,-0.35108 -0.210218,-0.42794 -0.0149,-0.0317 -0.05071,-0.1171 -0.07963,-0.19039 -0.02884,-0.0733 -0.05837,-0.13926 -0.06558,-0.14646 -0.01864,-0.0187 -0.399366,-1.07448 -0.402533,-1.11625 -0.0011,-0.0193 -0.03155,-0.11897 -0.06674,-0.2223 -0.03518,-0.10332 -0.09097,-0.27602 -0.123827,-0.38372 -0.03285,-0.10763 -0.08978,-0.28929 -0.126459,-0.40361 -0.03671,-0.11426 -0.0676,-0.22326 -0.06879,-0.24219 -0.0023,-0.0385 -0.253709,-0.72249 -0.272262,-0.74103 -0.0065,-0.007 -0.02187,-0.0425 -0.03394,-0.0797 -0.03812,-0.1175 -0.14467,-0.3275 -0.269952,-0.54363 -0.125283,-0.21612 -0.269188,-0.4386 -0.381537,-0.58054 -0.126855,-0.1603 -0.300443,-0.34249 -0.480244,-0.50914 -0.179802,-0.1666 -0.365846,-0.31751 -0.517456,-0.41541 -0.05811,-0.0374 -0.1347,-0.0877 -0.170442,-0.11157 -0.06245,-0.0419 -0.249754,-0.15346 -0.362847,-0.21594 -0.02992,-0.0164 -0.07521,-0.0414 -0.10045,-0.0561 -0.02527,-0.0147 -0.09016,-0.0471 -0.144377,-0.0724 -0.05418,-0.0255 -0.120377,-0.0591 -0.147018,-0.0747 -0.02663,-0.0159 -0.105642,-0.0522 -0.176007,-0.0808 -0.07032,-0.0289 -0.134772,-0.0599 -0.143504,-0.0686 -0.0087,-0.008 -0.867041,-0.28171 -1.906864,-0.60657 -1.311091,-0.40959 -1.888321,-0.59768 -1.883727,-0.6136 0.0165,-0.0574 3.659321,-7.82426 3.874343,-8.15525 -0.495829,-1.11451 0.082,0.22265 -0.593446,-1.29372 -2.230253,5.10284 -0.98257,2.30874 -2.06321,4.77711 -1.080639,2.4683 -1.968285,4.48759 -1.972706,4.4872 -0.0045,-4.5e-4 -0.489614,-0.15424 -1.078049,-0.34109 -0.588463,-0.18684 -1.097596,-0.34086 -1.131942,-0.342 -0.0344,0 -0.10763,0.0136 -0.162553,0.0328 -0.09202,0.0329 -0.107596,0.0442 -0.201531,0.1505 -0.05606,0.0633 -0.115694,0.14411 -0.132703,0.1801 -0.04105,0.0872 -2.782339,8.30711 -2.794877,8.38073 -0.01413,0.0826 0.06191,0.29842 0.13642,0.38781 l 0.06091,0.0732 0.703469,0.2347 0.703174,0.23413 -0.274531,0.60741 c -0.08226,0.32795 -0.15789,0.65317 -0.280601,0.71955 z m 2.334366,-10.24366 c 0.0062,-0.006 1.276539,0.38544 2.82325,0.86914 l 2.812712,0.87939 -0.181385,0.54741 c -0.09973,0.30105 -0.184123,0.55041 -0.187241,0.55381 -0.0028,0.006 -1.123208,-0.3416 -2.488796,-0.76661 -1.365594,-0.42501 -2.629363,-0.81878 -2.808321,-0.87497 l -0.325374,-0.10202 0.172011,-0.54763 c 0.09452,-0.30128 0.176965,-0.55279 0.183144,-0.55852 z m -0.536245,1.65526 c 0.009,0.006 1.279693,0.40358 2.823253,0.88761 l 2.806262,0.88002 -0.18109,0.54763 c -0.09976,0.30111 -0.186884,0.55268 -0.193397,0.55937 -0.0065,0.007 -1.27999,-0.38618 -2.829988,-0.87322 l -2.818271,-0.88557 0.188415,-0.56169 c 0.103603,-0.30893 0.195805,-0.55806 0.204816,-0.55415 z m -0.566417,1.67464 c 0.0091,0.006 1.279671,0.40329 2.823253,0.88733 l 2.806268,0.87996 -0.181385,0.5474 c -0.09978,0.30105 -0.186594,0.55319 -0.193102,0.55994 -0.0065,0.007 -1.066988,-0.32238 -2.356712,-0.73111 -1.289718,-0.40879 -2.556722,-0.81078 -2.815635,-0.89345 l -0.470933,-0.15033 0.185778,-0.55381 c 0.102203,-0.30456 0.193457,-0.5499 0.202468,-0.54593 z m -0.579303,1.70128 c 0.01168,-0.0119 0.984893,0.28422 2.828822,0.86097 l 2.811245,0.87911 -0.173481,0.5541 c -0.09552,0.30479 -0.176926,0.55738 -0.180213,0.56021 -0.0034,0 -1.277246,-0.39575 -2.83057,-0.88614 l -2.82413,-0.89135 0.175227,-0.52922 c 0.09641,-0.29113 0.183293,-0.53765 0.1931,-0.54768 z m -0.529511,1.64738 c 0.0091,0.006 1.279671,0.40329 2.823253,0.88733 l 2.806268,0.88024 -0.18109,0.54741 c -0.09976,0.30104 -0.186878,0.55296 -0.193397,0.55964 -0.0066,0.007 -1.27999,-0.38617 -2.829988,-0.87327 l -2.818271,-0.88551 0.188415,-0.56175 c 0.103598,-0.30893 0.195805,-0.55806 0.20481,-0.55409 z"
         style="fill:#ffffff;fill-opacity:1;stroke:none;stroke-width:0.0706438;stroke-linecap:butt;stroke-linejoin:miter;stroke-miterlimit:4;stroke-dasharray:none;stroke-opacity:1"
         id="path1972-7"
         inkscape:connector-curvature="0" />
      <path
         sodipodi:nodetypes="ccccccccccscccccccccccsscccccccccccccccccccccsccccccccsccccccccccccccccccccccccccscccccccccccccccccccccccccccccccccccccccccccccsccccccccscccccccccccccccccccccsccccccccccccc"
         inkscape:export-ydpi="212.56"
         inkscape:export-xdpi="212.56"
         inkscape:export-filename="C:\Users\Jan\Desktop\new_icon.png"
         d="m 76.316633,111.08664 0.04205,0.0125 c 0.02307,0.007 1.328508,0.48276 2.901082,1.05732 l 2.859262,1.04483 0.06788,0.29411 c 0.03738,0.16187 0.316676,1.38466 0.620649,2.71705 l 0.552781,2.4225 -2.368304,7.1011 -2.368096,7.10083 2.427234,-0.10769 c 1.335,-0.0593 2.430018,-0.11092 2.433238,-0.11415 0.0034,-0.006 0.129658,-0.27922 0.28071,-0.61313 l 0.274502,-0.60742 -0.703265,-0.23413 -0.70327,-0.23452 -0.06088,-0.0734 c -0.07451,-0.0893 -0.150534,-0.30529 -0.136425,-0.38792 0.01254,-0.0736 2.753675,-8.29329 2.794712,-8.38045 0.01701,-0.0363 0.07675,-0.11714 0.132799,-0.18038 0.09394,-0.10597 0.109529,-0.11781 0.201549,-0.1505 0.05492,-0.0193 0.127992,-0.034 0.162371,-0.0328 0.03435,1e-5 0.5437,0.15527 1.132163,0.34211 0.588435,0.18685 1.076025,0.34488 1.07789,0.34086 0.128009,-0.27463 0.892095,-2.01878 1.972735,-4.48714 1.080639,-2.46831 1.980192,-4.51929 1.994683,-4.54706 -0.04755,-0.34125 -0.397356,-0.7831 -0.586332,-1.06385 -0.03915,-0.0581 -0.150301,-0.204 -0.385538,-0.50578 -1.770252,-2.32312 -4.74485,-3.40583 -7.40943,-3.63376 -0.275234,-0.0233 -0.988324,-0.0302 -1.291262,-0.0121 -2.37018,0.0811 -3.99227,1.03699 -5.195633,2.22297 z m -3.704395,7.70206 c -0.03883,0.0561 -0.101321,0.67529 -0.101641,1.0073 0.0158,2.51547 1.670653,5.44749 3.092032,6.79356 1.09027,0.81864 2.113195,1.82962 3.509395,2.11034 0.0051,-0.006 0.300957,-0.87537 0.657441,-1.93403 l 0.647907,-1.92485 -0.418877,-1.76707 c -0.23044,-0.97198 -0.422897,-1.78061 -0.42779,-1.79705 -0.0065,-0.0215 -0.952048,-0.36827 -3.474102,-1.273 -3.002354,-1.07706 -3.467539,-1.23923 -3.484256,-1.2152 z m 19.730697,-4.4913 c -0.0106,0.006 -3.634122,8.23369 -3.650635,8.29105 -0.0045,0.0159 0.572795,0.20396 1.883886,0.61354 1.039823,0.32481 1.897932,0.59773 1.906671,0.60646 0.0087,0.009 0.07317,0.0397 0.143494,0.0686 0.07036,0.0289 0.14962,0.0654 0.176227,0.081 0.02664,0.0153 0.09283,0.0493 0.147012,0.0746 0.05424,0.0255 0.119085,0.0578 0.144332,0.0723 0.02522,0.0147 0.0705,0.0397 0.100433,0.0561 0.113093,0.0625 0.300362,0.17398 0.362813,0.21588 0.03576,0.0238 0.112321,0.0741 0.17043,0.11162 0.303221,0.19575 0.74395,0.60407 0.997673,0.92467 0.224687,0.28387 0.575371,0.88895 0.651562,1.124 0.01212,0.0374 0.02742,0.073 0.03394,0.0796 0.01853,0.0187 0.269785,0.70272 0.272221,0.74126 0.0011,0.0187 0.03223,0.12781 0.06892,0.24208 0.03671,0.11432 0.09361,0.29598 0.126464,0.40367 0.03285,0.10769 0.0886,0.28022 0.123787,0.38355 0.03518,0.10338 0.06525,0.20342 0.06666,0.22246 0.0034,0.0419 0.383777,1.09772 0.402409,1.11631 0.0072,0.007 0.03677,0.0731 0.06564,0.14646 0.02889,0.0732 0.06479,0.15882 0.0797,0.19033 0.03637,0.0769 0.17965,0.36832 0.210347,0.42789 0.06789,0.13155 0.254605,0.43401 0.381587,0.61829 l 0.142661,0.20689 1.932459,1.94028 1.932672,1.94052 30.32114,30.33096 1.02406,-1.02375 -30.32112,-30.33096 h -0.001 l -1.64217,-1.65272 c -1.764832,-1.77607 -1.701723,-1.70867 -2.020114,-2.15874 -1.852745,-3.57731 -6.042708,-16.11151 -6.233885,-16.06541 z m -6.524127,8.18024 c -0.0062,0.006 -0.08865,0.25701 -0.183172,0.55828 l -0.171772,0.54775 0.325334,0.10219 c 0.178958,0.0561 1.442545,0.44973 2.808133,0.8748 1.365595,0.42501 2.485741,0.77001 2.488797,0.76666 0.0028,-0.006 0.08758,-0.2527 0.187314,-0.55375 l 0.181295,-0.54735 -2.812475,-0.87956 c -1.546716,-0.48376 -2.817258,-0.87486 -2.823454,-0.86902 z m -0.536041,1.65526 c -0.009,-0.006 -0.101309,0.24499 -0.204912,0.55392 l -0.188341,0.56186 2.818067,0.88557 c 1.549997,0.4871 2.823566,0.8799 2.830085,0.87321 0.0065,-0.007 0.09356,-0.25825 0.193317,-0.55936 l 0.181294,-0.54775 -2.806477,-0.87979 c -1.543554,-0.48403 -2.814015,-0.88347 -2.823033,-0.88766 z m -0.566484,1.67452 c -0.009,-0.006 -0.10022,0.24154 -0.202423,0.54605 l -0.185858,0.55358 0.470923,0.15044 c 0.258912,0.0827 1.525865,0.48466 2.815577,0.89345 1.289724,0.40879 2.35016,0.73774 2.356684,0.73105 0.0065,-0.007 0.09354,-0.25871 0.193312,-0.55976 l 0.1813,-0.54735 -2.806263,-0.88002 c -1.543582,-0.48404 -2.814196,-0.88319 -2.823252,-0.88744 z m -0.579326,1.70145 c -0.0098,0.0102 -0.09669,0.25644 -0.193106,0.54751 l -0.175278,0.52933 2.824278,0.89136 c 1.553329,0.49038 2.82714,0.88908 2.830485,0.88602 0.0034,0 0.08456,-0.25537 0.180072,-0.56016 l 0.173632,-0.55415 -2.811238,-0.87922 c -1.843924,-0.5767 -2.817163,-0.87271 -2.828845,-0.86069 z m -0.529601,1.64715 c -0.009,-0.006 -0.101117,0.24522 -0.204714,0.55415 l -0.188551,0.56163 2.818282,0.8858 c 1.549997,0.4871 2.82352,0.87996 2.830073,0.87322 0.0065,-0.007 0.09357,-0.25872 0.193323,-0.55976 l 0.181306,-0.54735 -2.806478,-0.88025 c -1.543582,-0.48404 -2.814191,-0.88319 -2.823241,-0.88744 z m 1.217963,2.45701 c -0.0084,0.008 -0.134007,0.29141 -0.279063,0.62974 l -0.263741,0.61529 c 2.13739,0.64147 4.237799,1.41448 6.384165,2.02563 0.02171,0 0.123261,0.0295 0.225726,0.0638 0.668156,0.22312 1.397876,0.67648 2.248257,1.39641 0.105421,0.0892 0.798151,0.76747 1.828799,1.79133 l 1.659031,1.6479 30.321127,30.33096 1.02428,-1.02392 -30.321134,-30.33096 -1.640806,-1.62971 c -1.32827,-1.31924 -1.692659,-1.67443 -1.91268,-1.864 -0.399224,-0.34397 -0.611007,-0.51721 -0.754982,-0.61851 -0.03893,-0.0272 -0.139312,-0.10057 -0.223239,-0.16242 -0.168349,-0.12403 -0.572683,-0.37574 -0.734713,-0.45738 -0.155972,-0.0786 -0.420933,-0.19022 -0.493068,-0.2078 -0.03508,-0.009 -1.636153,-0.51188 -3.558013,-1.11829 -1.921849,-0.60641 -3.501465,-1.09618 -3.509951,-1.08807 z m 7.320668,-7.05407 c -0.0057,0.006 -0.588356,1.74254 -1.294381,3.85951 l -1.283594,3.84914 0.07684,0.0255 c 0.38976,0.12928 2.98579,0.95066 2.997823,0.94862 0.02596,-0.006 0.233029,0.078 0.369642,0.14731 0.451748,0.22899 1.012624,0.64276 1.615181,1.19188 0.151309,0.13797 1.008805,0.9852 1.942091,1.9187 l 1.47e-4,-1.6e-4 1.67123,1.67177 30.321194,30.33091 2.36008,-2.35934 -30.32114,-30.33091 -1.828806,-1.83938 c -1.78301,-1.79319 -1.982579,-2.00083 -2.12138,-2.20948 -0.0238,-0.0357 -0.07778,-0.11195 -0.119877,-0.1692 -0.0421,-0.0573 -0.137163,-0.20621 -0.211191,-0.33097 -0.07403,-0.12475 -0.15065,-0.25399 -0.170396,-0.28726 -0.05451,-0.0916 -0.261023,-0.56238 -0.302875,-0.69037 -0.02039,-0.0621 -0.04254,-0.11834 -0.04929,-0.12509 -0.0067,-0.007 -0.03178,-0.0823 -0.05569,-0.16794 -0.100644,-0.36093 -0.995325,-3.24296 -1.023988,-3.29867 -0.01728,-0.0335 -0.04351,-0.0866 -0.05819,-0.11824 -0.05377,-0.11546 -0.123551,-0.23222 -0.239138,-0.39955 -0.09965,-0.14414 -0.162541,-0.21523 -0.401093,-0.45421 -0.393344,-0.39408 -0.655855,-0.58801 -1.157131,-0.8547 -0.227349,-0.12093 -0.699867,-0.32408 -0.716102,-0.30781 z"
         style="mix-blend-mode:normal;fill:#005d49;fill-opacity:1;stroke:#ffffff;stroke-width:0.26458334;stroke-linecap:butt;stroke-linejoin:bevel;stroke-miterlimit:4;stroke-dasharray:none;stroke-opacity:1;paint-order:normal"
         id="path896-2-1-7-9"
         inkscape:connector-curvature="0" />
    </g>
  </g>
</svg>
